<svg xmlns="http://www.w3.org/2000/svg" width="200" height="200" viewBox="0 0 200 200">
  <rect width="200" height="200" fill="#f5f5f5"/>
  <rect x="20" y="20" width="40" height="40" fill="#333"/>
  <rect x="140" y="20" width="40" height="40" fill="#333"/>
  <rect x="20" y="140" width="40" height="40" fill="#333"/>
  <rect x="30" y="30" width="20" height="20" fill="#fff"/>
  <rect x="150" y="30" width="20" height="20" fill="#fff"/>
  <rect x="30" y="150" width="20" height="20" fill="#fff"/>
  <rect x="35" y="35" width="10" height="10" fill="#333"/>
  <rect x="155" y="35" width="10" height="10" fill="#333"/>
  <rect x="35" y="155" width="10" height="10" fill="#333"/>
  <rect x="70" y="20" width="10" height="10" fill="#333"/>
  <rect x="90" y="20" width="10" height="10" fill="#333"/>
  <rect x="110" y="20" width="10" height="10" fill="#333"/>
  <rect x="70" y="40" width="10" height="10" fill="#333"/>
  <rect x="100" y="40" width="10" height="10" fill="#333"/>
  <rect x="120" y="40" width="10" height="10" fill="#333"/>
  <rect x="80" y="60" width="10" height="10" fill="#333"/>
  <rect x="100" y="60" width="10" height="10" fill="#333"/>
  <rect x="70" y="80" width="10" height="10" fill="#333"/>
  <rect x="90" y="80" width="10" height="10" fill="#333"/>
  <rect x="110" y="80" width="10" height="10" fill="#333"/>
  <rect x="130" y="80" width="10" height="10" fill="#333"/>
  <rect x="80" y="100" width="10" height="10" fill="#333"/>
  <rect x="100" y="100" width="10" height="10" fill="#333"/>
  <rect x="120" y="100" width="10" height="10" fill="#333"/>
  <rect x="70" y="120" width="10" height="10" fill="#333"/>
  <rect x="90" y="120" width="10" height="10" fill="#333"/>
  <rect x="110" y="120" width="10" height="10" fill="#333"/>
  <rect x="80" y="140" width="10" height="10" fill="#333"/>
  <rect x="100" y="140" width="10" height="10" fill="#333"/>
  <rect x="120" y="140" width="10" height="10" fill="#333"/>
  <rect x="140" y="140" width="40" height="40" fill="#333"/>
  <rect x="150" y="150" width="20" height="20" fill="#fff"/>
  <rect x="155" y="155" width="10" height="10" fill="#333"/>
  <text x="100" y="195" text-anchor="middle" fill="#888" font-size="10" font-family="system-ui">微信客服</text>
</svg>
